<svg xmlns="http://www.w3.org/2000/svg" width="38.556" height="27.661" viewBox="0 0 38.556 27.661"><g transform="translate(-0.78 -0.728)"><path d="M2.023,0A1.96,1.96,0,0,1,3.994,1.949s0,.009,0,.014L3.949,33.056a1.989,1.989,0,0,1-1.977,1.986A1.96,1.96,0,0,1,0,33.093s0-.009,0-.014L.045,1.986A1.989,1.989,0,0,1,2.023,0Z" transform="translate(36.512 0.728) rotate(45)" fill="#ffffff"/><path d="M2,0H2A2,2,0,0,1,3.993,2L4,16.931a1.985,1.985,0,0,1-1.984,1.985h-.02a2,2,0,0,1-1.989-2L0,1.985A1.985,1.985,0,0,1,1.984,0Z" transform="translate(0.78 15.013) rotate(-45)" fill="#ffffff"/></g></svg>