<svg xmlns="http://www.w3.org/2000/svg" width="17.331" height="19.556" viewBox="0 0 17.331 19.556">
  <defs>
    <style>
      .cls-1 {
        fill: #828990;
      }
    </style>
  </defs>
  <g id="Edit-2" transform="translate(-0.32 -0.178)">
    <path id="Shape" class="cls-1" d="M14.667,18.222H1.333V1.333H8.889V0H1.333A1.333,1.333,0,0,0,0,1.333V18.222a1.333,1.333,0,0,0,1.333,1.333H14.667A1.333,1.333,0,0,0,16,18.222V9.778H14.667Z" transform="translate(0.32 0.178)"/>
    <path id="Shape-2" data-name="Shape" class="cls-1" d="M1.333,11.23A1.333,1.333,0,0,1,.041,9.572L.374,8.239C.483,7.793,7.82.464,7.894.39a1.334,1.334,0,0,1,1.884,0l.942.942a1.342,1.342,0,0,1,0,1.889c-.073.075-7.288,7.52-7.728,7.636l-1.334.333A1.332,1.332,0,0,1,1.333,11.23Zm7.5-9.893h0L2.578,7.594l.032.027.911.911L9.778,2.279l-.942-.942Z" transform="translate(6.542 0.508)"/>
  </g>
</svg>
