<svg xmlns="http://www.w3.org/2000/svg" width="18.416" height="21.511" viewBox="0 0 18.416 21.511">
  <defs>
    <style>
      .cls-1 {
        fill: #828990;
      }
    </style>
  </defs>
  <g id="Dollar_bag" transform="translate(-0.022 -0.196)">
    <path id="Shape" class="cls-1" d="M2.507,4.307A.86.86,0,0,1,1.9,2.84a.885.885,0,0,1,1.217,0,.856.856,0,0,1,.254.611.733.733,0,1,0,1.467,0A2.317,2.317,0,0,0,3.02,1.188L3,.733a.733.733,0,1,0-1.467,0v.616a2.322,2.322,0,0,0,.978,4.434,1.036,1.036,0,0,1,.24,2.044H2.282A1.032,1.032,0,0,1,1.47,6.712a.733.733,0,0,0-.655-.8.724.724,0,0,0-.8.655,2.493,2.493,0,0,0,1.52,2.557.728.728,0,0,0,1.418.156A2.5,2.5,0,0,0,2.5,4.312Z" transform="translate(6.729 8.996)"/>
    <path id="Shape-2" data-name="Shape" class="cls-1" d="M3.414,21.511a3.407,3.407,0,0,1-3.4-3.7C.192,15.7,1.11,8.6,5.39,5.92V5.891L3.924,1.98A1.466,1.466,0,0,1,5.3,0H13.12a1.467,1.467,0,0,1,1.373,1.98L13.027,5.891V5.92c4.242,2.657,5.189,9.777,5.378,11.9a3.431,3.431,0,0,1-3.416,3.7H3.414ZM6.764,6.844h0c-3.3,1.516-4.9,6.727-5.285,11.1a1.956,1.956,0,0,0,1.952,2.1h11.56a1.956,1.956,0,0,0,1.946-2.1c-.382-4.359-1.972-9.564-5.285-11.1H6.764ZM5.3,1.467l1.466,3.91h4.889l1.467-3.91H5.3Z" transform="translate(0.022 0.196)"/>
  </g>
</svg>
