<svg xmlns="http://www.w3.org/2000/svg" width="20.816" height="19.52" viewBox="0 0 20.816 19.52">
  <defs>
    <style>
      .cls-1 {
        fill: #828990;
      }
    </style>
  </defs>
  <g id="Home" transform="translate(-0.411 -0.189)">
    <path id="Shape" class="cls-1" d="M18.026,19.52H2.788a1.431,1.431,0,0,1-1.429-1.429V10.472A1.429,1.429,0,0,1,.5,7.958L9.483.339a1.427,1.427,0,0,1,1.848,0l8.981,7.618a1.432,1.432,0,0,1-.858,2.519v7.614A1.43,1.43,0,0,1,18.026,19.52ZM8.978,12.382h2.858a1.43,1.43,0,0,1,1.428,1.428V18.1h4.762V9.049h1.362L10.407,1.429,1.426,9.049H2.788V18.1H7.55V13.811A1.43,1.43,0,0,1,8.978,12.382Zm0,1.428V18.1h2.858V13.811Z" transform="translate(0.412 0.19)"/>
  </g>
</svg>
