<?xml version="1.0" standalone="no"?>
<!DOCTYPE svg PUBLIC "-//W3C//DTD SVG 20010904//EN"
 "http://www.w3.org/TR/2001/REC-SVG-20010904/DTD/svg10.dtd">
<svg version="1.0" xmlns="http://www.w3.org/2000/svg"
 width="512.000000pt" height="512.000000pt" viewBox="0 0 512.000000 512.000000"
 preserveAspectRatio="xMidYMid meet">
<metadata>
Created by potrace 1.16, written by Peter Selinger 2001-2019
</metadata>
<g transform="translate(0.000000,512.000000) scale(0.100000,-0.100000)"
fill="#000000" stroke="none">
<path d="M303 5052 c-86 -74 -272 -269 -286 -299 -33 -73 41 -14 241 191 78
80 142 151 142 156 0 23 -34 6 -97 -48z"/>
<path d="M503 5051 c-104 -90 -480 -475 -488 -500 -12 -37 2 -35 52 7 72 60
533 529 533 541 0 24 -33 8 -97 -48z"/>
<path d="M703 5051 c-112 -97 -680 -674 -687 -699 -23 -71 24 -29 442 391 188
189 342 349 342 356 0 24 -32 8 -97 -48z"/>
<path d="M903 5051 c-116 -100 -880 -875 -888 -899 -22 -72 19 -35 543 491
243 244 442 449 442 455 0 25 -32 10 -97 -47z"/>
<path d="M1103 5051 c-118 -102 -1080 -1075 -1088 -1099 -11 -38 2 -37 52 6
79 66 1133 1127 1133 1140 0 25 -32 10 -97 -47z"/>
<path d="M1303 5051 c-119 -104 -1280 -1275 -1288 -1299 -11 -38 2 -37 52 6
80 67 1333 1327 1333 1340 0 25 -32 10 -97 -47z"/>
<path d="M1503 5051 c-121 -105 -1480 -1475 -1488 -1499 -11 -38 2 -37 52 6
81 68 1533 1527 1533 1540 0 25 -32 10 -97 -47z"/>
<path d="M1703 5051 c-121 -105 -1680 -1675 -1688 -1699 -11 -38 2 -37 52 6
81 68 1733 1727 1733 1740 0 25 -32 10 -97 -47z"/>
<path d="M1903 5051 c-122 -106 -1881 -1875 -1888 -1899 -11 -38 2 -37 52 6
82 69 1933 1927 1933 1940 0 25 -32 10 -97 -47z"/>
<path d="M2103 5051 c-123 -107 -2081 -2075 -2088 -2099 -11 -38 2 -37 52 6
82 69 2133 2127 2133 2140 0 25 -32 10 -97 -47z"/>
<path d="M2303 5051 c-123 -107 -2281 -2276 -2288 -2299 -11 -38 2 -37 52 6
82 69 2333 2327 2333 2340 0 25 -32 10 -97 -47z"/>
<path d="M2503 5051 c-124 -107 -2481 -2476 -2488 -2499 -11 -38 2 -37 52 6
82 70 2533 2527 2533 2540 0 25 -32 10 -97 -47z"/>
<path d="M2703 5051 c-75 -66 -2611 -2604 -2661 -2664 -33 -39 -41 -67 -20
-67 6 0 326 314 710 697 384 384 698 695 698 693 0 -3 -13 -45 -29 -94 l-29
-89 -649 -651 c-357 -358 -664 -668 -681 -689 -33 -39 -41 -67 -20 -67 6 0
306 294 665 652 l653 653 -16 -55 c-40 -135 -12 -104 -686 -778 l-638 -638 0
-756 0 -756 24 -23 c24 -23 24 -23 5 -47 -19 -25 -25 -52 -11 -52 4 1 23 14
42 30 30 27 42 30 99 30 l66 0 -76 -77 c-41 -43 -90 -95 -107 -116 -32 -37
-41 -67 -22 -67 5 0 70 59 143 130 l134 130 63 0 63 0 -176 -180 c-98 -98
-177 -184 -177 -190 0 -44 89 31 380 324 149 149 222 216 237 216 12 0 29 3
38 6 19 8 45 55 45 82 0 10 10 28 23 39 21 19 25 19 71 6 l48 -15 -321 -323
c-177 -177 -321 -328 -321 -334 0 -20 29 -11 67 21 21 17 171 164 334 325
l295 294 42 -16 c23 -10 42 -20 42 -23 0 -3 -131 -137 -290 -298 -160 -160
-290 -297 -290 -303 0 -20 29 -11 67 21 21 17 157 150 303 294 l265 263 44
-20 44 -19 -261 -264 c-144 -145 -262 -269 -262 -275 0 -20 29 -11 67 21 21
17 142 135 270 262 l232 230 40 -19 c23 -10 41 -20 41 -23 0 -3 -101 -108
-225 -233 -124 -125 -225 -232 -225 -238 0 -20 29 -11 67 21 21 17 128 121
239 231 l201 199 42 -22 43 -21 -196 -199 c-108 -109 -196 -204 -196 -209 0
-20 29 -11 67 21 21 17 115 107 208 199 l170 167 43 -20 44 -19 -166 -169
c-91 -93 -166 -174 -166 -180 0 -19 29 -10 67 22 21 17 101 93 178 169 l140
137 43 -20 43 -19 -135 -140 c-75 -76 -136 -144 -136 -149 0 -37 95 36 244
188 l79 81 41 -16 c23 -9 43 -18 45 -19 2 -2 -44 -53 -103 -114 -58 -61 -106
-116 -106 -121 0 -18 30 -8 67 23 21 17 74 67 119 110 l80 79 57 -7 56 -7 -89
-94 c-91 -96 -102 -113 -75 -113 17 0 64 39 170 141 73 70 89 81 183 117 l103
40 -136 -139 c-74 -77 -135 -144 -135 -149 0 -19 30 -10 67 22 21 17 103 96
183 174 l145 142 109 46 108 45 -206 -209 c-113 -115 -206 -213 -206 -219 0
-20 29 -11 67 21 21 17 135 127 253 244 230 228 223 223 410 296 14 5 -100
-116 -252 -270 -153 -154 -278 -285 -278 -291 0 -20 29 -11 67 21 21 17 169
161 328 319 l290 287 109 46 109 46 -351 -354 c-194 -194 -352 -358 -352 -365
0 -24 33 -8 97 48 75 66 2271 2264 2321 2324 33 39 41 67 20 67 -6 0 -295
-282 -641 -627 -346 -346 -619 -612 -608 -592 12 20 22 58 24 88 l3 52 585
587 c322 323 600 604 617 625 33 39 41 67 20 67 -6 0 -287 -275 -625 -612
-337 -336 -614 -610 -615 -607 -2 2 -14 19 -27 38 l-23 33 619 622 c341 341
634 638 651 659 33 39 41 67 20 67 -6 0 -309 -297 -672 -660 l-661 -659 -48
16 -49 16 689 691 c379 380 704 708 721 729 33 39 41 67 20 67 -7 0 -352 -339
-767 -754 -814 -811 -746 -750 -931 -833 -50 -22 15 46 796 829 468 469 865
870 882 891 33 39 41 67 20 67 -7 0 -435 -423 -953 -939 l-940 -940 -120 -56
-120 -56 1009 1010 c911 911 1013 1009 1047 1015 25 4 46 16 63 37 l26 31 0
747 c0 821 3 778 -60 805 l-28 12 44 53 c41 49 55 81 36 81 -5 0 -42 -31 -84
-70 l-76 -70 -62 0 -62 0 86 91 c47 51 86 96 86 100 0 32 -102 -43 -205 -150
-35 -37 -44 -41 -88 -41 -42 0 -54 -5 -83 -34 -29 -29 -34 -41 -34 -83 0 -40
-5 -54 -25 -73 l-25 -23 0 26 c0 24 -4 27 -36 27 l-37 0 167 170 c91 93 166
174 166 180 0 44 -89 -32 -370 -314 l-205 -206 -64 0 -64 0 251 254 c139 140
252 259 252 265 0 45 -88 -30 -370 -313 l-205 -206 -64 0 -64 0 251 254 c139
140 252 259 252 265 0 45 -88 -30 -370 -313 l-205 -206 -64 0 -64 0 251 254
c139 140 252 259 252 265 0 45 -88 -30 -370 -313 l-205 -206 -64 0 -64 0 251
254 c139 140 252 259 252 265 0 45 -88 -30 -370 -313 l-205 -206 -64 0 -64 0
251 254 c139 140 252 259 252 265 0 45 -88 -30 -370 -313 l-205 -206 -64 0
-64 0 251 254 c139 140 252 259 252 265 0 45 -88 -29 -375 -318 -161 -162
-216 -211 -235 -211 -14 0 -49 -7 -79 -15 l-53 -14 271 274 c149 150 271 278
271 284 0 20 -29 11 -67 -21 -21 -17 -166 -159 -323 -314 l-285 -283 -120 -56
-120 -56 358 359 c196 198 357 364 357 371 0 24 -33 8 -97 -48 -38 -33 -221
-213 -408 -401 -295 -296 -348 -345 -400 -369 -134 -63 -245 -172 -306 -301
-24 -49 -56 -90 -131 -166 l-100 -101 -49 15 -49 16 670 671 c368 369 670 677
670 683 0 21 -28 13 -67 -20 -21 -17 -328 -321 -683 -675 l-646 -644 -32 12
c-18 6 -45 8 -60 4 -19 -4 167 188 631 652 361 363 657 665 657 671 0 25 -32
10 -97 -47z m1218 -1775 l-430 -430 30 95 29 94 323 323 322 322 57 0 58 0 0
57 c0 40 5 62 18 76 16 19 17 17 20 -44 l3 -63 -430 -430z m-241 159 c-261
-262 -246 -251 -317 -224 -27 10 -26 11 203 240 l230 229 64 0 65 0 -245 -245z
m161 -39 l-285 -285 -32 32 -32 32 251 253 252 252 65 0 65 0 -284 -284z m35
-365 l-475 -475 29 94 29 94 443 443 443 443 3 -62 3 -62 -475 -475z m572 417
l42 -3 -590 -590 -590 -590 25 80 c14 44 25 84 25 90 0 5 230 240 512 522 334
335 516 509 523 503 6 -5 29 -10 53 -12z m-798 -1040 c-520 -522 -947 -948
-950 -948 -3 0 -13 19 -24 41 l-19 41 964 964 964 964 5 -57 6 -58 -946 -947z
m-1905 940 c14 -6 25 -14 25 -17 0 -4 -54 -60 -120 -126 l-119 -119 -16 37
c-8 20 -15 42 -15 49 0 7 39 52 87 100 91 91 108 99 158 76z m450 -198 c-216
-216 -221 -219 -196 -105 10 46 23 62 129 168 122 122 143 135 222 136 l45 1
-200 -200z m305 174 c22 -9 40 -19 40 -23 0 -11 -499 -505 -505 -500 -2 3 -11
23 -19 45 l-14 39 226 228 c125 125 228 227 229 227 2 0 21 -7 43 -16z m2193
-43 c25 -6 -37 -70 -992 -1025 -839 -839 -1018 -1013 -1006 -980 8 21 14 57
15 79 0 40 11 50 957 997 872 872 959 956 977 946 12 -6 33 -14 49 -17z
m-2864 -22 c6 -18 11 -39 11 -48 0 -9 -40 -56 -88 -104 -81 -81 -91 -88 -118
-81 -75 18 -76 17 52 145 65 65 122 119 125 119 4 0 12 -14 18 -31z m2056
-1019 l-1040 -1041 -85 -40 c-47 -23 -101 -48 -120 -56 -24 -10 302 323 1060
1081 l1095 1096 65 0 65 0 -1040 -1040z m-1260 1000 l29 -31 -262 -262 -262
-262 -32 33 -33 32 260 260 c143 143 262 260 266 260 3 0 18 -14 34 -30z m95
-150 c0 -8 -103 -118 -229 -244 l-229 -228 -36 12 c-19 6 -39 16 -42 22 -4 6
108 124 247 264 l254 254 17 -33 c9 -17 17 -39 18 -47z m-1501 -52 l-28 -92
-468 -468 -468 -468 -65 0 -65 0 560 560 c308 308 561 560 561 560 1 0 -11
-41 -27 -92z m1517 -113 c-6 -36 -22 -57 -145 -179 l-138 -138 -69 -5 -69 -5
210 211 c193 194 210 209 213 184 2 -15 1 -45 -2 -68z m387 -8 l28 -12 -120
-119 -120 -120 -11 28 c-22 58 -14 77 67 158 82 82 99 90 156 65z m94 -95 l15
-35 -99 -99 c-106 -105 -117 -110 -168 -72 -18 14 -14 20 100 134 65 65 123
116 128 113 5 -3 16 -21 24 -41z m-1997 -27 c8 -5 -124 -144 -376 -396 l-389
-389 -65 0 -65 0 424 424 425 425 17 -28 c10 -16 23 -32 29 -36z m133 -49 c27
-11 26 -12 -398 -436 -349 -349 -425 -420 -425 -400 0 14 -7 36 -16 49 -17 23
-14 25 377 417 322 322 397 393 414 388 11 -4 32 -12 48 -18z m154 -47 c27
-10 22 -15 -392 -429 l-420 -420 -57 0 -58 0 0 -58 c0 -49 -4 -62 -25 -82
l-25 -23 0 64 0 64 453 453 c483 483 452 458 524 431z m134 -41 c22 -6 39 -14
39 -17 0 -3 -205 -211 -455 -461 -372 -372 -455 -450 -455 -430 0 14 -6 36
-14 50 -13 25 -6 33 408 448 231 232 425 422 430 422 5 0 26 -5 47 -12z m-273
-536 c-471 -471 -473 -473 -510 -470 l-38 4 0 -41 c0 -31 -6 -47 -25 -65 l-25
-23 0 64 0 64 486 486 486 486 50 -15 49 -16 -473 -474z m576 442 l48 -17
-463 -463 c-439 -439 -464 -463 -493 -458 -88 15 -118 -23 390 485 258 258
469 469 470 469 0 0 22 -7 48 -16z m173 -55 c27 -10 21 -16 -423 -460 l-450
-450 -58 7 -58 7 459 459 c489 490 458 464 530 437z m134 -40 c19 -7 36 -14
39 -16 2 -2 -193 -201 -434 -442 -280 -280 -444 -437 -455 -435 -9 1 -34 6
-55 9 l-39 7 444 444 c244 244 449 444 455 444 6 0 26 -5 45 -11z m162 -52
l37 -12 -428 -428 -428 -428 -58 7 -58 7 433 433 c239 239 441 434 449 433 8
0 32 -6 53 -12z m146 -47 l44 -12 -414 -414 c-388 -388 -416 -414 -449 -414
-99 1 -116 -21 341 436 232 233 425 421 428 419 3 -1 26 -8 50 -15z m154 -47
c15 -3 29 -9 32 -12 2 -4 -164 -174 -368 -379 l-372 -371 -73 -9 -73 -9 398
399 c272 273 403 396 413 392 8 -3 27 -8 43 -11z m160 -49 c15 -4 27 -9 27
-13 0 -3 -150 -156 -333 -339 l-333 -333 -65 -9 c-35 -5 -68 -10 -74 -10 -5 0
152 162 350 360 289 289 364 360 380 355 11 -3 32 -8 48 -11z m144 -47 l43
-13 -303 -301 -302 -301 -70 -7 -70 -6 320 320 c176 177 324 321 330 321 5 0
29 -6 52 -13z m176 -47 c30 0 12 -19 -271 -303 l-303 -303 -44 20 -45 21 292
292 c268 268 293 291 315 282 13 -5 39 -9 56 -9z m-648 -1081 c-74 -75 -122
-106 -170 -110 -73 -6 -73 -2 -1 70 65 65 72 70 125 76 31 4 67 13 81 20 14 8
27 14 30 15 2 0 -27 -32 -65 -71z m1095 -104 c-85 -85 -155 -153 -156 -152 -2
1 2 22 7 46 5 24 7 52 3 63 -10 34 43 77 171 139 66 32 122 58 125 58 3 1 -65
-69 -150 -154z"/>
<path d="M4022 1178 c-590 -590 -1092 -1095 -1114 -1121 -43 -50 -44 -63 -6
-52 24 7 2052 2025 2159 2148 57 65 72 97 47 97 -7 0 -495 -483 -1086 -1072z"/>
<path d="M4122 1078 c-535 -535 -992 -995 -1014 -1021 -43 -50 -44 -63 -6 -52
24 7 1853 1826 1959 1948 57 65 72 97 47 97 -7 0 -450 -438 -986 -972z"/>
<path d="M4222 978 c-480 -480 -892 -895 -914 -921 -43 -50 -44 -63 -6 -52 24
8 1653 1626 1759 1748 57 65 72 97 47 97 -7 0 -405 -393 -886 -872z"/>
<path d="M4322 878 c-754 -754 -860 -863 -849 -874 3 -3 16 -3 29 1 24 8 1454
1427 1559 1548 57 65 72 97 47 97 -7 0 -360 -348 -786 -772z"/>
<path d="M4422 778 c-658 -658 -760 -763 -749 -774 3 -3 16 -3 29 1 24 8 1255
1228 1359 1348 57 65 72 97 47 97 -6 0 -315 -303 -686 -672z"/>
<path d="M4522 678 c-664 -663 -694 -695 -620 -673 24 8 1056 1030 1159 1148
57 65 72 97 47 97 -6 0 -270 -258 -586 -572z"/>
<path d="M4623 578 c-558 -557 -594 -595 -521 -573 24 8 858 832 959 948 57
65 72 97 47 97 -6 0 -225 -213 -485 -472z"/>
<path d="M4723 478 c-452 -450 -492 -495 -421 -472 25 7 661 634 759 747 56
65 72 97 48 97 -7 0 -180 -168 -386 -372z"/>
<path d="M4823 378 c-345 -342 -390 -394 -322 -373 25 8 468 441 560 548 56
64 72 97 48 97 -6 0 -135 -123 -286 -272z"/>
<path d="M4924 278 c-185 -182 -261 -265 -250 -275 14 -14 62 23 192 149 203
197 286 298 244 298 -6 0 -90 -78 -186 -172z"/>
</g>
</svg>
