<svg xmlns="http://www.w3.org/2000/svg" width="40.619" height="40.209" viewBox="0 0 40.619 40.209">
  <g id="pdf_icon" data-name="pdf icon" transform="translate(-0.302 -0.325)">
    <path id="Shape_Copy" data-name="Shape Copy" d="M32.549,12.03l-.009,18.694a1.6,1.6,0,0,1-1.6,1.584H1.6A1.6,1.6,0,0,1,0,30.725V1.584A1.6,1.6,0,0,1,1.6,0H21.188a1.6,1.6,0,0,1,1.6,1.584V6.275a3.116,3.116,0,0,0,3.158,3.158h5a1.6,1.6,0,0,1,1.6,1.584Z" transform="translate(0.302 0.325)" fill="#fb6363" opacity="0.1"/>
    <path id="Shape_Copy_2" data-name="Shape Copy 2" d="M2.936,35.958A2.936,2.936,0,0,1,0,33.022V2.936A2.931,2.931,0,0,1,2.936,0H27.265a1.488,1.488,0,0,1,1.047.436l7.414,7.349a1.571,1.571,0,0,1,.445,1.047l-.028,24.227a2.917,2.917,0,0,1-2.936,2.9Z" transform="translate(4.751 4.576)" fill="#fb6363"/>
    <path id="Shape" d="M.949,22.806l-.578-.284a.885.885,0,0,1-.341-1c.227-1.1,1.573-2.474,3.6-3.687.247-.132,1.26-.682,1.308-.7l.588-.313C6.1,15.839,6.74,14.673,7.442,13.3l.085-.18c.664-1.3,1.432-2.786,2.029-4.256l.209-.54C8.93,5.1,8.456,2.6,8.911.939A1.394,1.394,0,0,1,10.314,0h.009l.36.057a1.4,1.4,0,0,1,1.223.986l.067.17a2.164,2.164,0,0,1,.095.408,31.711,31.711,0,0,1-.55,5.649c-.038.161-.076.313-.123.493a12.621,12.621,0,0,0,3.1,4.815,9.743,9.743,0,0,0,1.725,1.184,27.754,27.754,0,0,1,3.744-.284c1.574.019,2.616.257,3.081.721a1.131,1.131,0,0,1,.341.588A2.6,2.6,0,0,1,23.1,16.54a1.163,1.163,0,0,1-.711.483,2.65,2.65,0,0,1-.72.086,14.5,14.5,0,0,1-6.114-1.933,53.9,53.9,0,0,0-8.379,1.99C4.864,21.194,3.176,23,1.735,23A1.639,1.639,0,0,1,.949,22.806Z" transform="translate(10.524 11.486)" fill="#fb6363"/>
  </g>
</svg>
