<?xml version="1.0" encoding="UTF-8"?>
<svg width="42px" height="41px" viewBox="0 0 42 41" version="1.1" xmlns="http://www.w3.org/2000/svg" xmlns:xlink="http://www.w3.org/1999/xlink">
    <!-- Generator: Sketch 61.2 (89653) - https://sketch.com -->
    <title>1</title>
    <desc>Created with Sketch.</desc>
    <g id="UI" stroke="none" stroke-width="1" fill="none" fill-rule="evenodd">
        <g id="Order-summary-for-fabric-vendor-OK" transform="translate(-855.000000, -494.000000)" fill="#FB6363" fill-rule="nonzero">
            <g id="1" transform="translate(855.000000, 494.000000)">
                <path d="M33.1713516,12.4755147 L33.1619989,31.3523219 C33.1619989,32.2314754 32.4324885,32.951633 31.5439823,32.951633 L1.92309335,32.951633 C1.03458716,32.951633 0.305076807,32.2314754 0.305076807,31.3523219 L0.305076807,1.92709889 C0.305076807,1.04794539 1.03458716,0.327787741 1.92309335,0.327787741 L21.7000838,0.327787741 C22.58859,0.327787741 23.3181003,1.04794539 23.3181003,1.92709889 L23.3181003,6.66442497 C23.3181003,8.44143736 24.6929468,9.85369458 26.5073699,9.85369458 L31.553335,9.85369458 C32.4418412,9.85369458 33.1713516,10.5738522 33.1713516,11.4530057 L33.1713516,12.4755147 Z" id="Shape-Copy" opacity="0.100000001"></path>
                <path d="M40.8720948,12.4814321 L33.3850759,5.059882 C33.104495,4.7793011 32.7210344,4.62030525 32.3282211,4.62030525 L29.3914743,4.62030525 L7.76264993,4.62030525 C6.1165753,4.62030525 4.79784505,5.9483882 4.79784505,7.58511013 L4.79784505,37.9643082 C4.79784505,39.6010301 6.12592799,40.9291131 7.76264993,40.9291131 L38.3281613,40.9291131 C39.9742359,40.9291131 41.2836135,39.6197355 41.2929662,38.001719 L41.3210242,13.5382868 C41.3116716,13.1548262 41.1526757,12.7713657 40.8720948,12.4814321 Z M32.1224618,6.60307697 L39.0483189,13.5195814 C39.3382525,13.809515 39.1324932,14.2958552 38.7303272,14.2958552 L33.1793165,14.2958552 C32.1692253,14.2958552 31.346188,13.4728179 31.346188,12.4627267 L31.346188,6.92106866 C31.346188,6.50955 31.8418809,6.31314337 32.1224618,6.60307697 Z M39.4878957,18.56375 L39.478543,37.4405571 C39.478543,38.3197106 38.7490326,39.0398683 37.8605264,39.0398683 L8.23963747,39.0398683 C7.35113127,39.0398683 6.62162092,38.3197106 6.62162092,37.4405571 L6.62162092,8.01533419 C6.62162092,7.13618069 7.35113127,6.41602303 8.23963747,6.41602303 L28.0166279,6.41602303 C28.9051341,6.41602303 29.6346445,7.13618069 29.6346445,8.01533419 L29.6346445,12.7526603 C29.6346445,14.5296727 31.0094909,15.9419299 32.8239141,15.9419299 L37.8698791,15.9419299 C38.7583853,15.9419299 39.4878957,16.6620875 39.4878957,17.541241 L39.4878957,18.56375 Z" id="Shape-Copy-2"></path>
                <path d="M27.0038244,25.4953048 C26.3912673,25.1411702 25.7595678,24.758322 25.2618651,24.2989041 C23.9314676,23.0546475 22.8212078,21.3222593 22.132081,19.4367319 C22.179937,19.254879 22.2182219,19.1017397 22.2565067,18.9390293 C22.2565067,18.9390293 23.0030607,14.679843 22.8116366,13.234591 C22.782923,13.0335957 22.7637805,12.9857397 22.7159245,12.8230292 L22.6489261,12.6507475 C22.4479308,12.1817584 22.0459402,11.6361997 21.4142406,11.6553422 L21.0505348,11.5979149 L21.0409636,11.5979149 C20.3422656,11.5979149 19.7679933,11.9999055 19.6244253,12.5454642 C19.1650074,14.2204251 19.6435677,16.7472233 20.4858337,20.001433 L20.2752672,20.5469917 C19.6722813,22.0305285 18.8970137,23.5332077 18.2270293,24.8444628 L18.1408885,25.0263157 C17.4326193,26.4141405 16.7817773,27.5913987 16.207505,28.586804 L15.6140903,28.9026538 C15.5662343,28.9217962 14.5421153,29.4769261 14.293264,29.610923 C12.2450261,30.8360372 10.885915,32.223862 10.6562061,33.3341218 C10.5796364,33.6882564 10.6370636,34.138103 11.0007694,34.3390983 L11.584613,34.6262345 C11.8334643,34.7602313 12.101458,34.8176586 12.379023,34.8176586 C13.8338462,34.8176586 15.5375207,32.9991296 17.8728947,28.9313674 C20.5719746,28.0508165 23.6443314,27.323405 26.3338401,26.9214143 C28.382078,28.069959 30.9088761,28.8739402 32.5072674,28.8739402 C32.7848323,28.8739402 33.0336837,28.8452266 33.234679,28.7877993 C33.5409575,28.7112297 33.7993801,28.538948 33.9525193,28.2996679 C34.2587979,27.8306788 34.3257963,27.1989793 34.2396555,26.5289949 C34.2109419,26.3279996 34.0578026,26.0887195 33.8950921,25.9355802 C33.4261031,25.4665912 32.3732705,25.227311 30.7844504,25.2081686 C29.6741907,25.2081686 28.3725068,25.3038807 27.0038244,25.4953048 Z M12.053602,33.7361124 C12.3215957,33.0087008 13.3744283,31.5634488 14.9345347,30.2904785 C15.039818,30.2139089 15.2695269,29.9842 15.4992359,29.7736335 C13.8625598,32.3674301 12.7714424,33.4106914 12.053602,33.7361124 Z M21.289815,12.4688946 C21.758804,12.4688946 22.0267978,13.655724 22.0459402,14.7564126 C22.0650826,15.8666724 21.8162312,16.64194 21.4812391,17.2257835 C21.2132453,16.3739463 21.0888196,15.0339776 21.0888196,14.1534267 C21.0888196,14.1534267 21.0696772,12.4688946 21.289815,12.4688946 Z M18.5333079,27.6201123 C18.8587289,27.0266976 19.193721,26.4141405 19.5478556,25.7632985 C20.3996929,24.1649073 20.9356804,22.9015082 21.337671,21.8773892 C22.132081,23.31307 23.1179151,24.5381843 24.2856022,25.5335896 C24.4291702,25.6580153 24.5823095,25.7728697 24.74502,25.8972954 C22.3617899,26.3567132 20.3231232,26.9309855 18.5333079,27.6201123 Z M32.7082627,26.7491326 C33.5505287,26.9596992 33.5600999,27.3904034 33.4165319,27.4861154 C33.2729638,27.5818275 32.861402,27.6296835 32.5934082,27.6296835 C31.741571,27.6296835 30.6791672,27.2372641 29.2052016,26.6055646 C29.7794739,26.5577085 30.296319,26.5385661 30.765308,26.5385661 C31.6171453,26.5385661 31.8659966,26.5385661 32.7082627,26.7491326 Z" id="Shape"></path>
            </g>
        </g>
    </g>
</svg>