<svg xmlns="http://www.w3.org/2000/svg" width="21.531" height="21.511" viewBox="0 0 21.531 21.511">
  <defs>
    <style>
      .cls-1 {
        fill: #828990;
      }
    </style>
  </defs>
  <g id="Settings-2" transform="translate(-0.342 -0.196)">
    <path id="Shape" class="cls-1" d="M3.911,7.822A3.911,3.911,0,1,1,7.822,3.911,3.915,3.915,0,0,1,3.911,7.822Zm0-6.355A2.444,2.444,0,1,0,6.356,3.911,2.447,2.447,0,0,0,3.911,1.467Z" transform="translate(7.196 7.04)"/>
    <path id="Shape-2" data-name="Shape" class="cls-1" d="M12.222,21.511H9.289a1.468,1.468,0,0,1-1.467-1.466V18.529c-.17-.067-.335-.137-.489-.205l-1.07,1.07a1.467,1.467,0,0,1-2.074,0L2.117,17.321a1.469,1.469,0,0,1,0-2.073l1.071-1.071c-.076-.161-.145-.325-.205-.489H1.467A1.469,1.469,0,0,1,0,12.222V9.289A1.469,1.469,0,0,1,1.467,7.822H2.983c.066-.169.135-.333.205-.489L2.127,6.263a1.471,1.471,0,0,1,0-2.074L4.2,2.117a1.467,1.467,0,0,1,2.073,0L7.343,3.188c.158-.075.322-.144.489-.205V1.467A1.469,1.469,0,0,1,9.3,0h2.933A1.469,1.469,0,0,1,13.7,1.467V2.983c.175.069.34.138.489.205l1.071-1.071a1.467,1.467,0,0,1,2.073,0L19.4,4.19a1.471,1.471,0,0,1,0,2.074l-1.071,1.07c.075.159.144.323.206.489h1.525a1.458,1.458,0,0,1,1.034.427,1.476,1.476,0,0,1,.433,1.04v2.933a1.469,1.469,0,0,1-1.467,1.467H18.548c-.066.169-.135.334-.205.489l1.051,1.071a1.467,1.467,0,0,1,0,2.073l-2.073,2.073a1.466,1.466,0,0,1-2.073,0l-1.071-1.07c-.161.075-.326.144-.489.205v1.516A1.468,1.468,0,0,1,12.222,21.511Zm-5.162-5h0a6.772,6.772,0,0,0,2.219.923v2.606h2.933V17.438a6.78,6.78,0,0,0,2.22-.923l1.862,1.843,2.073-2.074-1.843-1.843a6.749,6.749,0,0,0,.924-2.219h2.606V9.289H17.448a6.749,6.749,0,0,0-.924-2.219l1.843-1.843L16.295,3.154,14.451,5a6.767,6.767,0,0,0-2.219-.924V1.467H9.3V4.073A6.767,6.767,0,0,0,7.079,5L5.236,3.154,3.164,5.226,5.006,7.07a6.766,6.766,0,0,0-.923,2.219H1.476v2.933H4.063a6.767,6.767,0,0,0,.924,2.219L3.144,16.285l2.073,2.074,1.843-1.843Z" transform="translate(0.342 0.196)"/>
  </g>
</svg>
