<svg xmlns="http://www.w3.org/2000/svg" xmlns:xlink="http://www.w3.org/1999/xlink" width="27.527" height="19.969" viewBox="0 0 27.527 19.969">
  <defs>
    <style>
      .cls-1 {
        fill: none;
      }

      .cls-2 {
        clip-path: url(#clip-path);
      }

      .cls-3 {
        fill: #828990;
      }
    </style>
    <clipPath id="clip-path">
      <path id="Clip_2" data-name="Clip 2" class="cls-1" d="M0,0H27.527V19.969H0Z" transform="translate(0 0)"/>
    </clipPath>
  </defs>
  <g id="Group_3" data-name="Group 3" transform="translate(0)">
    <path id="Clip_2-2" data-name="Clip 2" class="cls-1" d="M0,0H27.527V19.969H0Z" transform="translate(0 0)"/>
    <g id="Group_3-2" data-name="Group 3" class="cls-2">
      <path id="Fill_1" data-name="Fill 1" class="cls-3" d="M20.026,19.969a4.058,4.058,0,0,1-3.965-3.24h-4.6a4.046,4.046,0,0,1-7.93,0h-.57A2.969,2.969,0,0,1,0,13.764V2.966A2.969,2.969,0,0,1,2.966,0H15.923a2.969,2.969,0,0,1,2.966,2.966v.058H22.4a.812.812,0,0,1,.57.237l4.319,4.319a.811.811,0,0,1,.236.57v7.774a.807.807,0,0,1-.806.806H23.991A4.06,4.06,0,0,1,20.026,19.969Zm0-6.479a2.433,2.433,0,1,0,2.433,2.433A2.435,2.435,0,0,0,20.026,13.49ZM7.5,13.49a2.433,2.433,0,1,0,2.433,2.433A2.435,2.435,0,0,0,7.5,13.49Zm12.525-1.613a4.059,4.059,0,0,1,3.965,3.239h1.922V8.955H18.889v3.086A4.027,4.027,0,0,1,20.026,11.877Zm-12.525,0a4.059,4.059,0,0,1,3.965,3.239h4.6a4.027,4.027,0,0,1,1.214-2.157V2.966a1.354,1.354,0,0,0-1.353-1.353H2.966A1.355,1.355,0,0,0,1.613,2.966v10.8a1.355,1.355,0,0,0,1.354,1.353h.57A4.059,4.059,0,0,1,7.5,11.877ZM18.889,4.636V7.342h5.884L22.067,4.636Z" transform="translate(0 0)"/>
    </g>
  </g>
</svg>
