<svg xmlns="http://www.w3.org/2000/svg" width="24.42" height="25.463" viewBox="0 0 24.42 25.463">
  <defs>
    <style>
      .cls-1 {
        fill: #828990;
        stroke: #828990;
        stroke-linejoin: round;
        stroke-miterlimit: 10;
        stroke-width: 0.6px;
      }
    </style>
  </defs>
  <path id="Fill_1" data-name="Fill 1" class="cls-1" d="M11.883,24.863a.537.537,0,0,1-.241-.057L.3,19.156a.534.534,0,0,1-.3-.481V6.159A.535.535,0,0,1,.256,5.7H.3L11.672.056a.54.54,0,0,1,.479,0L23.521,5.7l.043.011a.537.537,0,0,1,.256.457v12.5a.534.534,0,0,1-.293.487L12.148,24.806h-.027l-.051.019a.4.4,0,0,1-.065.024A.534.534,0,0,1,11.883,24.863ZM1.078,7.045v11.29l10.3,5.14V12.153Zm14.917,3.347-3.546,1.76v11.29l10.3-5.108V7.045L19.379,8.7v5.914a.536.536,0,0,1-.287.476l-2.309,1.215a.538.538,0,0,1-.787-.476Zm2.3-1.145-1.234.613v5.094L18.3,14.3ZM5.164,4.47h0l-3.417,1.7,10.165,5.062L15.32,9.524,5.164,4.47ZM7.457,3.338l-1.076.538L16.527,8.927l1.092-.537L7.457,3.338Zm4.454-2.207L8.656,2.744,18.828,7.782l3.247-1.613L11.911,1.131h0Z" transform="translate(0.3 0.3)"/>
</svg>
