<svg id="icon_title_fabric" data-name="icon title fabric" xmlns="http://www.w3.org/2000/svg" xmlns:xlink="http://www.w3.org/1999/xlink" width="27.878" height="27.854" viewBox="0 0 27.878 27.854">
  <defs>
    <clipPath id="clip-path">
      <path id="Clip_2" data-name="Clip 2" d="M0,0H21.385V21.961H0Z" transform="translate(0 0.212)" fill="none"/>
    </clipPath>
    <clipPath id="clip-path-2">
      <path id="Clip_5" data-name="Clip 5" d="M0,0H21.385V22.235H0Z" transform="translate(0)" fill="none"/>
    </clipPath>
  </defs>
  <g id="Group_3" data-name="Group 3" transform="translate(0 5.681)">
    <path id="Clip_2-2" data-name="Clip 2" d="M0,0H21.385V21.961H0Z" transform="translate(0 0.212)" fill="none"/>
    <g id="Group_3-2" data-name="Group 3" clip-path="url(#clip-path)">
      <path id="Fill_1" data-name="Fill 1" d="M20.866,19.935a2.357,2.357,0,0,1-.975-.265,1.385,1.385,0,0,0,.043.254,2.711,2.711,0,0,0,.441.876,1.825,1.825,0,0,1,.132.207.473.473,0,0,1-.06.073h0l-.012.011a1.951,1.951,0,0,1-.243-.148,1.815,1.815,0,0,0-1.02-.388,1.564,1.564,0,0,0-.949.3.757.757,0,0,1-.932,0,1.633,1.633,0,0,0-1.9,0,.757.757,0,0,1-.931,0,1.631,1.631,0,0,0-1.9,0,.757.757,0,0,1-.931,0,1.633,1.633,0,0,0-1.9,0,.758.758,0,0,1-.932,0,1.633,1.633,0,0,0-1.9,0,.758.758,0,0,1-.932,0,1.633,1.633,0,0,0-1.9,0,.7.7,0,0,1-.466.16.7.7,0,0,1-.467-.16,1.567,1.567,0,0,0-.95-.3,1.814,1.814,0,0,0-1.02.389,1.961,1.961,0,0,1-.244.148l-.012-.012a.3.3,0,0,1-.032-.038,1.539,1.539,0,0,1,.16-.257,1.756,1.756,0,0,0,.408-1.028,1.59,1.59,0,0,0-.31-.965.812.812,0,0,1,0-.994,1.59,1.59,0,0,0,.31-.965,1.59,1.59,0,0,0-.31-.965.811.811,0,0,1,0-.993,1.589,1.589,0,0,0,.31-.965,1.59,1.59,0,0,0-.31-.965.812.812,0,0,1,0-.994,1.59,1.59,0,0,0,.31-.965,1.591,1.591,0,0,0-.31-.965.812.812,0,0,1,0-.994,1.591,1.591,0,0,0,.31-.965,1.591,1.591,0,0,0-.31-.965.812.812,0,0,1,0-.994,1.59,1.59,0,0,0,.31-.965,1.592,1.592,0,0,0-.31-.965.815.815,0,0,1,0-1,1.6,1.6,0,0,0,.31-.966,1.758,1.758,0,0,0-.408-1.029A1.493,1.493,0,0,1,.876.921.244.244,0,0,1,.909.882L.92.871a1.978,1.978,0,0,1,.244.147,1.816,1.816,0,0,0,1.02.389,1.685,1.685,0,0,0,.355-.037A2.574,2.574,0,0,1,2.526.462a.623.623,0,0,1-.342.083,1.067,1.067,0,0,1-.53-.24A.975.975,0,0,0,.277.288.98.98,0,0,0,.32,1.671a1.025,1.025,0,0,1,.251.537.758.758,0,0,1-.17.5,1.659,1.659,0,0,0,0,1.931.759.759,0,0,1,.17.5.757.757,0,0,1-.17.5,1.657,1.657,0,0,0,0,1.93.759.759,0,0,1,.17.5.757.757,0,0,1-.17.5,1.657,1.657,0,0,0,0,1.93.757.757,0,0,1,.17.5.757.757,0,0,1-.17.5,1.656,1.656,0,0,0,0,1.93.757.757,0,0,1,.17.5.755.755,0,0,1-.17.5,1.655,1.655,0,0,0,0,1.929.758.758,0,0,1,.17.5.758.758,0,0,1-.17.5,1.656,1.656,0,0,0,0,1.93.758.758,0,0,1,.17.5,1.025,1.025,0,0,1-.251.536.979.979,0,0,0-.043,1.383.835.835,0,0,0,.611.287,1.442,1.442,0,0,0,.766-.306,1.069,1.069,0,0,1,.531-.24.7.7,0,0,1,.467.16,1.565,1.565,0,0,0,.95.3,1.566,1.566,0,0,0,.95-.3.758.758,0,0,1,.932,0,1.633,1.633,0,0,0,1.9,0,.758.758,0,0,1,.932,0,1.633,1.633,0,0,0,1.9,0,.757.757,0,0,1,.932,0,1.633,1.633,0,0,0,1.9,0,.756.756,0,0,1,.931,0,1.631,1.631,0,0,0,1.9,0,.757.757,0,0,1,.932,0,1.633,1.633,0,0,0,1.9,0,.7.7,0,0,1,.466-.16,1.069,1.069,0,0,1,.53.24.975.975,0,0,0,1.376.018.94.94,0,0,0,.015-1.362,2.576,2.576,0,0,1-.228-.376" transform="translate(0 0.212)" fill="#f7b500"/>
    </g>
  </g>
  <g id="Group_6" data-name="Group 6" transform="translate(6.493)">
    <path id="Clip_5-2" data-name="Clip 5" d="M0,0H21.385V22.235H0Z" transform="translate(0)" fill="none"/>
    <g id="Group_6-2" data-name="Group 6" clip-path="url(#clip-path-2)">
      <path id="Fill_4" data-name="Fill 4" d="M21.094,20.565a1.922,1.922,0,0,1-.317-.617c-.05-.187-.008-.246.13-.442a1.589,1.589,0,0,0,.357-.988,1.62,1.62,0,0,0-.31-.977.832.832,0,0,1,0-1.007,1.7,1.7,0,0,0,0-1.954.832.832,0,0,1,0-1.007,1.7,1.7,0,0,0,0-1.954.831.831,0,0,1,0-1.007,1.7,1.7,0,0,0,0-1.954.83.83,0,0,1,0-1.006,1.694,1.694,0,0,0,0-1.954.831.831,0,0,1,0-1.007,1.623,1.623,0,0,0,.31-.977,1.622,1.622,0,0,0-.31-.977.773.773,0,0,1-.17-.5,1.045,1.045,0,0,1,.251-.543,1,1,0,0,0,.043-1.4A.967.967,0,0,0,19.7.309a1.065,1.065,0,0,1-.531.243A.7.7,0,0,1,18.7.39a1.618,1.618,0,0,0-1.9,0,.7.7,0,0,1-.467.162A.7.7,0,0,1,15.871.39a1.617,1.617,0,0,0-1.9,0,.7.7,0,0,1-.466.162A.7.7,0,0,1,13.04.39a1.617,1.617,0,0,0-1.9,0,.7.7,0,0,1-.466.162A.7.7,0,0,1,10.208.39a1.616,1.616,0,0,0-1.9,0,.7.7,0,0,1-.466.162A.7.7,0,0,1,7.379.391a1.615,1.615,0,0,0-1.9,0,.7.7,0,0,1-.466.162A.7.7,0,0,1,4.549.39a1.616,1.616,0,0,0-1.9,0,.7.7,0,0,1-.466.162,1.063,1.063,0,0,1-.53-.243A.967.967,0,0,0,.277.292a1,1,0,0,0,.043,1.4,1.628,1.628,0,0,1,.223.389,2.358,2.358,0,0,1,.891.347c.007-.064.01-.129.01-.193a1.8,1.8,0,0,0-.408-1.042A1.52,1.52,0,0,1,.876.933.283.283,0,0,1,.909.893L.92.882a1.975,1.975,0,0,1,.244.15,1.8,1.8,0,0,0,1.02.393,1.55,1.55,0,0,0,.949-.308.75.75,0,0,1,.932,0,1.551,1.551,0,0,0,.949.308,1.553,1.553,0,0,0,.949-.308.749.749,0,0,1,.931,0,1.548,1.548,0,0,0,.949.308,1.549,1.549,0,0,0,.949-.308.749.749,0,0,1,.931,0,1.553,1.553,0,0,0,.95.308,1.552,1.552,0,0,0,.95-.308.75.75,0,0,1,.932,0,1.553,1.553,0,0,0,.95.308,1.553,1.553,0,0,0,.95-.308.75.75,0,0,1,.932,0,1.551,1.551,0,0,0,.949.308,1.553,1.553,0,0,0,.95-.308.752.752,0,0,1,.934,0,1.555,1.555,0,0,0,.95.308,1.8,1.8,0,0,0,1.02-.393,1.958,1.958,0,0,1,.244-.15l.012.012a.25.25,0,0,1,.032.039,1.551,1.551,0,0,1-.16.26,1.792,1.792,0,0,0-.408,1.041,1.626,1.626,0,0,0,.31.977.772.772,0,0,1,.17.5.772.772,0,0,1-.17.5,1.7,1.7,0,0,0,0,1.954.83.83,0,0,1,0,1.006,1.693,1.693,0,0,0,0,1.953.83.83,0,0,1,0,1.006,1.7,1.7,0,0,0,0,1.954.831.831,0,0,1,0,1.007,1.7,1.7,0,0,0,0,1.954.831.831,0,0,1,0,1.007,1.7,1.7,0,0,0,0,1.954.773.773,0,0,1,.17.5.756.756,0,0,1-.2.485,1.259,1.259,0,0,0-.26,1.17,2.755,2.755,0,0,0,.441.887,1.875,1.875,0,0,1,.133.21.492.492,0,0,1-.06.074h0l-.012.011a1.961,1.961,0,0,1-.243-.149,1.8,1.8,0,0,0-1.02-.393,1.542,1.542,0,0,0-.565.1,2.619,2.619,0,0,1,.038.441,2.336,2.336,0,0,1-.072.579c.048-.029.093-.058.133-.085a.7.7,0,0,1,.466-.162,1.06,1.06,0,0,1,.53.243.973.973,0,1,0,1.392-1.361" transform="translate(0 0)" fill="#f7b500"/>
    </g>
  </g>
  <path id="Fill_7" data-name="Fill 7" d="M.878,21.913h0a.822.822,0,0,1-.6-.287.983.983,0,0,1,.042-1.38,1.031,1.031,0,0,0,.248-.535.764.764,0,0,0-.167-.5,1.671,1.671,0,0,1,0-1.926.819.819,0,0,0,0-.992,1.669,1.669,0,0,1,0-1.925.82.82,0,0,0,0-.991,1.671,1.671,0,0,1,0-1.926.82.82,0,0,0,0-.992,1.669,1.669,0,0,1,0-1.926.822.822,0,0,0,0-.993A1.671,1.671,0,0,1,.4,5.62a.822.822,0,0,0,0-.993A1.673,1.673,0,0,1,.4,2.7a.761.761,0,0,0,.168-.5,1.027,1.027,0,0,0-.248-.536A.986.986,0,0,1,.274.287.826.826,0,0,1,.877,0a1.412,1.412,0,0,1,.755.3,1.049,1.049,0,0,0,.524.239h.019a.686.686,0,0,0,.44-.16,1.6,1.6,0,0,1,1.874,0,.743.743,0,0,0,.459.16.743.743,0,0,0,.459-.16,1.6,1.6,0,0,1,1.874,0A.744.744,0,0,0,7.74.544.743.743,0,0,0,8.2.384a1.6,1.6,0,0,1,1.874,0,.743.743,0,0,0,.459.16.743.743,0,0,0,.459-.16,1.6,1.6,0,0,1,1.875,0,.743.743,0,0,0,.459.16.743.743,0,0,0,.459-.16,1.6,1.6,0,0,1,1.875,0,.743.743,0,0,0,.46.16.746.746,0,0,0,.46-.16,1.6,1.6,0,0,1,1.875,0,.689.689,0,0,0,.442.16h.019A1.051,1.051,0,0,0,19.44.305,1.406,1.406,0,0,1,20.2,0a.829.829,0,0,1,.6.287.984.984,0,0,1-.042,1.38,1.024,1.024,0,0,0-.247.536.754.754,0,0,0,.167.5,1.671,1.671,0,0,1,0,1.925.819.819,0,0,0,0,.993,1.669,1.669,0,0,1,0,1.925.819.819,0,0,0,0,.991,1.674,1.674,0,0,1,0,1.926.818.818,0,0,0,0,.992,1.674,1.674,0,0,1,0,1.926.819.819,0,0,0,0,.993,1.671,1.671,0,0,1,0,1.925.819.819,0,0,0,0,.993,1.606,1.606,0,0,1,.305.963,1.568,1.568,0,0,1-.352.974c-.136.193-.177.251-.128.436a1.862,1.862,0,0,0,.312.608.947.947,0,0,1-.015,1.359.827.827,0,0,1-.6.287,1.411,1.411,0,0,1-.755-.3,1.05,1.05,0,0,0-.523-.24H18.9a.7.7,0,0,0-.445.16,1.6,1.6,0,0,1-1.874,0,.74.74,0,0,0-.919,0,1.6,1.6,0,0,1-1.874,0,.74.74,0,0,0-.918,0,1.6,1.6,0,0,1-1.874,0,.741.741,0,0,0-.92,0,1.6,1.6,0,0,1-1.874,0,.741.741,0,0,0-.92,0,1.6,1.6,0,0,1-1.874,0,.741.741,0,0,0-.92,0,1.6,1.6,0,0,1-1.876,0,.694.694,0,0,0-.446-.161H2.156a1.05,1.05,0,0,0-.523.24A1.419,1.419,0,0,1,.878,21.913Zm.2-3.224.025.038.014.022a1.591,1.591,0,0,1,.306.963,1.758,1.758,0,0,1-.4,1.026,1.507,1.507,0,0,0-.158.257.31.31,0,0,0,.031.039l.007.006.006.005A1.944,1.944,0,0,0,1.15,20.9a1.765,1.765,0,0,1,1.006-.388h.031a1.478,1.478,0,0,1,.828.252V18.689H1.081ZM18.9,20.509h.02a1.772,1.772,0,0,1,1.006.388,1.831,1.831,0,0,0,.24.147l.012-.011a.586.586,0,0,0,.059-.073,1.779,1.779,0,0,0-.131-.207,2.708,2.708,0,0,1-.435-.874,1.233,1.233,0,0,1,.257-1.152l.015-.021.011-.017h-2.08v2.193c.031-.018.063-.039.1-.063l.01-.006A1.542,1.542,0,0,1,18.9,20.509ZM3.876,18.689V20.9c.044-.024.085-.051.14-.086a1.542,1.542,0,0,1,.916-.3h.051a1.476,1.476,0,0,1,.831.255V18.689Zm2.8,0V20.9c.041-.022.081-.048.128-.079l.006,0a1.542,1.542,0,0,1,.916-.3h.051a1.478,1.478,0,0,1,.837.259V18.689Zm2.8,0v2.2c.037-.021.074-.044.128-.08a1.542,1.542,0,0,1,.916-.3h.05a1.482,1.482,0,0,1,.843.262V18.689Zm2.8,0v2.2c.038-.022.076-.046.122-.076a1.542,1.542,0,0,1,.916-.3h.05a1.481,1.481,0,0,1,.85.267V18.689Zm2.8,0v2.2c.025-.014.051-.031.078-.049l.037-.024a1.542,1.542,0,0,1,.916-.3h.05a1.484,1.484,0,0,1,.856.271V18.689Zm2.8-2.793V17.83H20L20,17.818l-.042-.066a1.606,1.606,0,0,1-.305-.963,1.549,1.549,0,0,1,.26-.893Zm-2.8,0V17.83h1.938V15.9Zm-2.8,0V17.83h1.938V15.9Zm-2.8,0V17.83h1.938V15.9Zm-2.8,0V17.83H8.614V15.9Zm-2.8,0V17.83H5.814V15.9Zm-2.714,0h0a1.553,1.553,0,0,1,.264.9,1.591,1.591,0,0,1-.306.963l-.047.073H3.015V15.9H1.162Zm16.71-3.007v2.148h2.2a1.321,1.321,0,0,0-.116-.2,1.674,1.674,0,0,1,0-1.926l.012-.018Zm-2.8,0v2.148h1.938V12.89Zm-2.8,0v2.148h1.938V12.89Zm-2.8,0v2.148h1.938V12.89Zm-2.8,0v2.148H8.614V12.89Zm-2.8,0v2.148H5.814V12.89Zm-2.773,0,.016.025a1.671,1.671,0,0,1,0,1.925,1.345,1.345,0,0,0-.113.2H3.015V12.89H1.1ZM17.872,9.883V12.03h2.153c-.021-.035-.044-.071-.072-.114a1.674,1.674,0,0,1,0-1.926c.025-.039.048-.074.067-.107Zm-2.8,0V12.03h1.938V9.883Zm-2.8,0V12.03h1.938V9.883Zm-2.8,0V12.03h1.938V9.883Zm-2.8,0V12.03H8.614V9.883Zm-2.8,0V12.03H5.814V9.883Zm-2.829,0c.022.036.045.073.072.114a1.674,1.674,0,0,1,0,1.926l-.006.009c-.023.035-.043.067-.062.1H3.015V9.883H1.048ZM17.872,6.875V9.023h2.1L19.953,9a1.671,1.671,0,0,1,0-1.925,1.245,1.245,0,0,0,.113-.2Zm-2.8,0V9.023h1.938V6.875Zm-2.8,0V9.023h1.938V6.875Zm-2.8,0V9.023h1.938V6.875Zm-2.8,0V9.023H8.614V6.875Zm-2.8,0V9.023H5.814V6.875ZM1,6.875a1.266,1.266,0,0,0,.116.2,1.674,1.674,0,0,1,0,1.927l-.012.018H3.015V6.875Zm16.869-3V6.017h2.039a1.548,1.548,0,0,1-.264-.9,1.606,1.606,0,0,1,.305-.963.954.954,0,0,0,.144-.283Zm-2.8,0V6.017h1.938V3.874Zm-2.8,0V6.017h1.938V3.874Zm-2.8,0V6.017h1.938V3.874Zm-2.8,0V6.017H8.614V3.874Zm-2.8,0V6.017H5.814V3.874Zm-2.9,0a.937.937,0,0,0,.144.288,1.591,1.591,0,0,1,.306.963,1.547,1.547,0,0,1-.261.893h1.85V3.873Zm16.9-2.84V3.014H19.86a1.526,1.526,0,0,1-.212-.813,1.771,1.771,0,0,1,.4-1.026,1.594,1.594,0,0,0,.157-.256A.257.257,0,0,0,20.176.88L20.169.874,20.164.869a1.94,1.94,0,0,0-.24.148,1.773,1.773,0,0,1-1.007.388H18.9a1.547,1.547,0,0,1-.917-.3l-.011-.007C17.933,1.07,17.9,1.05,17.872,1.032Zm-2.8,0V3.014h1.938V1.13a1.494,1.494,0,0,1-.865.274H16.1a1.542,1.542,0,0,1-.917-.3C15.139,1.07,15.1,1.048,15.073,1.03Zm-2.8,0V3.014h1.938V1.134a1.5,1.5,0,0,1-.86.27h-.046a1.525,1.525,0,0,1-.916-.3C12.349,1.073,12.311,1.048,12.274,1.027Zm-2.8,0V3.014h1.938V1.138a1.493,1.493,0,0,1-.854.267h-.046A1.525,1.525,0,0,1,9.6,1.1C9.557,1.074,9.516,1.047,9.475,1.023Zm-2.8,0V3.014H8.614V1.141a1.485,1.485,0,0,1-.848.263H7.72A1.519,1.519,0,0,1,6.8,1.1C6.753,1.066,6.714,1.041,6.675,1.02Zm-2.8,0v2H5.814V1.147a1.491,1.491,0,0,1-.84.258H4.928a1.542,1.542,0,0,1-.916-.3C3.962,1.067,3.919,1.039,3.876,1.016ZM.908.868h0L.9.88A.217.217,0,0,0,.865.919a1.514,1.514,0,0,0,.158.257,1.759,1.759,0,0,1,.4,1.027,1.536,1.536,0,0,1-.211.811h1.8V1.15a1.487,1.487,0,0,1-.833.254H2.156a1.773,1.773,0,0,1-1.007-.388A1.94,1.94,0,0,0,.908.869Z" transform="translate(3.246 2.841)" fill="#f7b500"/>
</svg>
