<svg id="Group_13" data-name="Group 13" xmlns="http://www.w3.org/2000/svg" width="25" height="25" viewBox="0 0 25 25">
  <path id="Fill_1" data-name="Fill 1" d="M9.75,19.5A9.75,9.75,0,1,1,19.5,9.75,9.7,9.7,0,0,1,9.75,19.5Zm0-17.945a8.195,8.195,0,1,0,8.2,8.194A8.218,8.218,0,0,0,9.75,1.555Z" transform="translate(3 3)" fill="#6bbaa5"/>
  <path id="Fill_3" data-name="Fill 3" d="M12.5,25A12.5,12.5,0,0,1,3.661,3.661,12.5,12.5,0,0,1,21.339,21.339,12.418,12.418,0,0,1,12.5,25Zm0-23.438A10.938,10.938,0,1,0,23.438,12.5,10.969,10.969,0,0,0,12.5,1.562Z" fill="#6bbaa5"/>
  <path id="Fill_5" data-name="Fill 5" d="M1.75,3.5A1.75,1.75,0,1,1,3.5,1.751,1.754,1.754,0,0,1,1.75,3.5Z" transform="translate(8 13)" fill="#6bbaa5"/>
  <path id="Fill_7" data-name="Fill 7" d="M1.75,3.5A1.75,1.75,0,1,1,3.5,1.751,1.754,1.754,0,0,1,1.75,3.5Z" transform="translate(13.5 13)" fill="#6bbaa5"/>
  <path id="Fill_9" data-name="Fill 9" d="M1.75,3.5A1.75,1.75,0,1,1,3.5,1.751,1.754,1.754,0,0,1,1.75,3.5Z" transform="translate(8 8.5)" fill="#6bbaa5"/>
  <path id="Fill_11" data-name="Fill 11" d="M1.75,3.5A1.75,1.75,0,1,1,3.5,1.751,1.754,1.754,0,0,1,1.75,3.5Z" transform="translate(13.5 8.5)" fill="#6bbaa5"/>
</svg>
