<svg id="Settings-2" xmlns="http://www.w3.org/2000/svg" width="25" height="25" viewBox="0 0 25 25">
  <path id="Shape" d="M4.5,9A4.5,4.5,0,1,1,9,4.5,4.505,4.505,0,0,1,4.5,9Zm0-7.312A2.813,2.813,0,1,0,7.313,4.5,2.816,2.816,0,0,0,4.5,1.688Z" transform="translate(8 8)" fill="#80c5dc"/>
  <path id="Shape-2" data-name="Shape" d="M14.191,25H10.786a1.706,1.706,0,0,1-1.7-1.7V21.534c-.186-.073-.372-.151-.568-.239L7.272,22.54a1.7,1.7,0,0,1-2.408,0L2.458,20.13a1.707,1.707,0,0,1,0-2.408L3.7,16.477c-.09-.194-.17-.385-.238-.568H1.7A1.706,1.706,0,0,1,0,14.2V10.8a1.706,1.706,0,0,1,1.7-1.7h1.76c.076-.194.156-.386.238-.568L2.47,7.278a1.708,1.708,0,0,1,0-2.409L4.876,2.461a1.7,1.7,0,0,1,2.407,0L8.527,3.7c.184-.086.375-.167.567-.238V1.7A1.706,1.706,0,0,1,10.8,0H14.2a1.706,1.706,0,0,1,1.7,1.7V3.466c.186.073.372.151.568.238l1.243-1.244a1.7,1.7,0,0,1,2.408,0l2.407,2.408a1.708,1.708,0,0,1,0,2.409L21.288,8.523c.091.194.171.386.238.568H23.3a1.716,1.716,0,0,1,1.2.5A1.694,1.694,0,0,1,25,10.8V14.2a1.706,1.706,0,0,1-1.7,1.7h-1.76c-.082.208-.16.394-.239.568l1.22,1.245a1.707,1.707,0,0,1,0,2.408L20.112,22.54a1.7,1.7,0,0,1-2.407,0L16.462,21.3c-.193.09-.385.17-.567.239V23.3A1.706,1.706,0,0,1,14.191,25ZM8.2,19.193h0a7.856,7.856,0,0,0,2.576,1.073V23.3H14.18V20.267a7.85,7.85,0,0,0,2.577-1.074l2.164,2.142,2.407-2.409-2.14-2.142A7.881,7.881,0,0,0,20.26,14.2h3.026V10.8H20.26a7.881,7.881,0,0,0-1.073-2.579l2.14-2.142L18.921,3.665l-2.14,2.142A7.852,7.852,0,0,0,14.2,4.733V1.7H10.8V4.733A7.852,7.852,0,0,0,8.22,5.807L6.08,3.665,3.673,6.074l2.14,2.142A7.863,7.863,0,0,0,4.74,10.8H1.715V14.2h3a7.864,7.864,0,0,0,1.074,2.579L3.65,18.926l2.407,2.409L8.2,19.194Z" fill="#80c5dc"/>
</svg>
