<svg xmlns="http://www.w3.org/2000/svg" xmlns:xlink="http://www.w3.org/1999/xlink" width="31.656" height="22.964" viewBox="0 0 31.656 22.964">
  <defs>
    <clipPath id="clip-path">
      <path id="Clip_2" data-name="Clip 2" d="M0,0H31.656V22.964H0Z" transform="translate(0 0)" fill="none"/>
    </clipPath>
  </defs>
  <g id="Group_3" data-name="Group 3" transform="translate(0 0)" clip-path="url(#clip-path)">
    <path id="Fill_1" data-name="Fill 1" d="M23.03,22.964a4.667,4.667,0,0,1-4.559-3.726H13.186a4.653,4.653,0,0,1-9.12,0H3.411A3.414,3.414,0,0,1,0,15.828V3.411A3.415,3.415,0,0,1,3.411,0h14.9a3.415,3.415,0,0,1,3.411,3.411v.066h4.039a.925.925,0,0,1,.656.272l4.966,4.967a.919.919,0,0,1,.272.656v8.94a.928.928,0,0,1-.927.927H27.59A4.668,4.668,0,0,1,23.03,22.964Zm0-7.451a2.8,2.8,0,1,0,2.8,2.8A2.8,2.8,0,0,0,23.03,15.513Zm-14.4,0a2.8,2.8,0,1,0,2.8,2.8A2.8,2.8,0,0,0,8.626,15.513Zm14.4-1.855a4.667,4.667,0,0,1,4.559,3.725H29.8V10.3H21.722v3.549A4.622,4.622,0,0,1,23.03,13.658Zm-14.4,0a4.668,4.668,0,0,1,4.56,3.725h5.285a4.628,4.628,0,0,1,1.4-2.48V3.411a1.558,1.558,0,0,0-1.556-1.556H3.411A1.558,1.558,0,0,0,1.855,3.411V15.828a1.557,1.557,0,0,0,1.556,1.555h.655A4.668,4.668,0,0,1,8.626,13.658Zm13.1-8.327V8.444H28.49L25.377,5.332Z" transform="translate(0 0)" fill="#f88d60"/>
  </g>
</svg>
