<svg xmlns="http://www.w3.org/2000/svg" width="24.179" height="22.404" viewBox="0 0 24.179 22.404">
  <defs>
    <style>
      .cls-1 {
        fill: #828990;
      }
    </style>
  </defs>
  <g id="User" transform="translate(-0.13 -0.236)">
    <path id="Shape" class="cls-1" d="M5.9,14.153c-3.252,0-5.9-3.175-5.9-7.077S2.646,0,5.9,0s5.9,3.175,5.9,7.077S9.149,14.153,5.9,14.153Zm0-12.384c-2.276,0-4.128,2.381-4.128,5.307S3.621,12.385,5.9,12.385,10.026,10,10.026,7.077,8.174,1.769,5.9,1.769Z" transform="translate(6.322 0.236)"/>
    <path id="Shape-2" data-name="Shape" class="cls-1" d="M17.486,0a.889.889,0,0,0-.177,1.769,5.744,5.744,0,0,1,5.06,5.308H1.811a5.791,5.791,0,0,1,5.06-5.308A.889.889,0,0,0,6.694,0,7.652,7.652,0,0,0,0,7.96a.885.885,0,0,0,.885.885h22.41a.885.885,0,0,0,.885-.885A7.652,7.652,0,0,0,17.486,0Z" transform="translate(0.13 13.796)"/>
  </g>
</svg>
